<svg width="57" height="56" viewBox="0 0 57 56" fill="none" xmlns="http://www.w3.org/2000/svg">
<circle cx="28.5" cy="28" r="28" fill="#EFD33D" fill-opacity="0.1"/>
<path d="M20.2052 25.6598C20.0495 25.6992 19.4394 25.9037 19.2837 25.9431C19.1051 25.9885 18.9484 26.0959 18.8416 26.2461C18.7348 26.3962 18.6848 26.5795 18.7006 26.7631C18.7007 26.7677 18.7011 26.7723 18.7019 26.7769C18.7187 26.9755 18.8113 27.16 18.9605 27.2923C19.1096 27.4245 19.3039 27.4944 19.5031 27.4875C20.2062 27.4631 20.9096 27.4385 21.6131 27.4137C22.5541 26.9769 23.0021 26.6197 22.9572 26.3422C22.898 25.976 21.9807 25.7485 20.2052 25.6598Z" fill="#FFC166"/>
<path d="M22.796 26.5855L21.0501 27.7949C20.8807 27.9095 20.7586 28.0817 20.7067 28.2795C20.6547 28.4773 20.6763 28.6872 20.7676 28.8703C20.8588 29.0533 21.0135 29.1969 21.2027 29.2745C21.3919 29.352 21.6029 29.3582 21.7964 29.2918L24.8045 28.2625C24.8509 28.0812 24.9224 27.6831 24.7289 27.2991C24.4345 26.7152 23.6442 26.3959 22.796 26.5854V26.5855Z" fill="#FFC570"/>
<path d="M42.6561 27.2037H25.0674C24.0318 27.2037 23.1924 28.0432 23.1924 29.0787V38.075C23.1924 39.1105 24.0318 39.95 25.0674 39.95H42.6561C43.6917 39.95 44.5311 39.1105 44.5311 38.075V29.0787C44.5311 28.0432 43.6917 27.2037 42.6561 27.2037Z" fill="#FFE177"/>
<path d="M42.6562 27.2037H41.7188C42.216 27.2037 42.6929 27.4013 43.0446 27.7529C43.3962 28.1045 43.5938 28.5815 43.5938 29.0787V38.075C43.5938 38.5723 43.3962 39.0492 43.0446 39.4008C42.6929 39.7524 42.216 39.95 41.7188 39.95H42.6562C43.1535 39.95 43.6304 39.7524 43.9821 39.4008C44.3337 39.0492 44.5312 38.5723 44.5312 38.075V29.0787C44.5312 28.5815 44.3337 28.1045 43.9821 27.7529C43.6304 27.4013 43.1535 27.2037 42.6562 27.2037Z" fill="#1B6392"/>
<path d="M25.0674 36.7V30.4537C25.4321 30.4537 25.7818 30.3089 26.0397 30.051C26.2975 29.7931 26.4424 29.4434 26.4424 29.0787H41.2811C41.2811 29.4434 41.426 29.7931 41.6839 30.051C41.9417 30.3089 42.2915 30.4537 42.6561 30.4537V36.7C42.2915 36.7 41.9417 36.8449 41.6839 37.1027C41.426 37.3606 41.2811 37.7103 41.2811 38.075H26.4424C26.4424 37.7103 26.2975 37.3606 26.0397 37.1027C25.7818 36.8449 25.4321 36.7 25.0674 36.7Z" fill="white"/>
<path d="M41.2812 29.0787H40.3438C40.3438 29.4434 40.4886 29.7931 40.7465 30.051C41.0043 30.3089 41.3541 30.4537 41.7188 30.4537V36.7C41.3541 36.7 41.0043 36.8449 40.7465 37.1027C40.4886 37.3606 40.3438 37.7103 40.3438 38.075H41.2812C41.2812 37.7103 41.4261 37.3606 41.684 37.1027C41.9418 36.8449 42.2916 36.7 42.6562 36.7V30.4537C42.2916 30.4537 41.9418 30.3089 41.684 30.051C41.4261 29.7931 41.2812 29.4434 41.2812 29.0787Z" fill="#EEEEEE"/>
<path d="M29.2143 27.7837L28.4774 27.2037L24.9149 24.3987C24.8061 24.3134 24.7183 24.2045 24.6579 24.0802C24.5976 23.9558 24.5664 23.8194 24.5668 23.6812C24.5668 23.648 24.5686 23.6148 24.5724 23.5818C24.5736 23.5681 24.5755 23.5537 24.578 23.54C24.5945 23.4332 24.6301 23.3304 24.683 23.2362C24.7441 23.1271 24.827 23.0317 24.9264 22.956C25.0259 22.8802 25.1399 22.8257 25.2613 22.7958C25.3828 22.7659 25.509 22.7613 25.6323 22.7822C25.7556 22.8032 25.8732 22.8492 25.978 22.9175L26.3805 23.18L27.4199 23.8575L27.9793 24.2231L28.3461 27.2037H30.4274L30.0186 23.1706C29.9637 22.6514 29.8099 22.1475 29.5655 21.6862L29.3611 21.3018C29.3574 21.2943 29.3536 21.2875 29.3499 21.28L29.3461 21.2725C28.7749 20.1425 28.2034 19.0122 27.6318 17.8818C27.5328 17.6859 27.3834 17.5199 27.199 17.4009C27.0145 17.2819 26.8017 17.2143 26.5824 17.205C24.1418 17.3706 21.7013 17.536 19.2611 17.7012L18.4099 17.7593C18.3605 17.7625 18.3105 17.7662 18.2611 17.7693C18.0911 17.7643 17.9172 17.7562 17.7393 17.745C17.6011 17.7362 16.873 17.6593 16.7399 17.6475L15.2107 23.2403L17.0536 24.4862C17.2431 24.6171 17.4499 24.721 17.668 24.795L20.688 25.8243L22.6105 26.48L23.3274 26.8881L24.1524 27.3581L25.5168 28.135L25.7418 28.2625L25.7518 28.2681L27.1936 29.0893L27.2199 29.1043L28.0193 29.5593C28.1655 29.6427 28.3294 29.6905 28.4976 29.6989C28.6658 29.7073 28.8336 29.676 28.9874 29.6075C29.1413 29.5391 29.2769 29.4354 29.3833 29.3049C29.4896 29.1744 29.5639 29.0207 29.5999 28.8562C29.6476 28.635 29.6246 28.4043 29.5343 28.1968C29.4635 28.0347 29.3535 27.8927 29.2143 27.7837Z" fill="#FFCD85"/>
<path d="M24.915 24.3987C24.8063 24.3134 24.7184 24.2045 24.6581 24.0802C24.5978 23.9558 24.5666 23.8194 24.5669 23.6812C24.5669 23.648 24.5688 23.6148 24.5725 23.5818C24.5738 23.5681 24.5756 23.5537 24.5781 23.54C24.5988 23.4082 24.6482 23.2825 24.7227 23.1718C24.7973 23.0612 24.8952 22.9682 25.0095 22.8995C24.9049 22.8369 24.7887 22.7959 24.668 22.7789C24.5472 22.762 24.4243 22.7695 24.3064 22.8008C24.1886 22.8322 24.0783 22.8869 23.9819 22.9617C23.8856 23.0365 23.8053 23.1298 23.7456 23.2362C23.6927 23.3304 23.6572 23.4332 23.6406 23.54C23.6381 23.5537 23.6363 23.5681 23.635 23.5818C23.6313 23.6148 23.6294 23.648 23.6294 23.6812C23.6291 23.8194 23.6603 23.9558 23.7206 24.0802C23.7809 24.2045 23.8688 24.3134 23.9775 24.3987L27.54 27.2037H28.4775L24.915 24.3987ZM26.6944 17.8818C27.2656 19.0118 27.8371 20.142 28.4088 21.2725L28.4125 21.28C28.4163 21.2875 28.42 21.2943 28.4238 21.3018L28.6281 21.6862C28.8725 22.1475 29.0263 22.6514 29.0813 23.1706L29.49 27.2037H30.4275L30.0188 23.1706C29.9638 22.6514 29.81 22.1475 29.5656 21.6862L29.3613 21.3018C29.3575 21.2943 29.3538 21.2875 29.35 21.28L29.3463 21.2725C28.775 20.1425 28.2036 19.0122 27.6319 17.8818C27.533 17.6859 27.3836 17.5199 27.1991 17.4009C27.0147 17.2819 26.8018 17.2143 26.5825 17.205L25.923 17.2496C26.0885 17.2954 26.2426 17.3753 26.3755 17.4842C26.5083 17.5931 26.617 17.7285 26.6944 17.8818ZM16.8019 17.745C16.98 17.7562 17.154 17.7643 17.3238 17.7693C17.3731 17.7662 17.4231 17.7625 17.4725 17.7593L17.7123 17.743C17.5263 17.7283 16.8663 17.6588 16.7401 17.6475L16.7153 17.7379C16.7528 17.7413 16.7831 17.7438 16.8019 17.745Z" fill="#FFC570"/>
<path d="M29.2144 27.7837L28.4775 27.2037H27.54L28.2769 27.7837C28.4162 27.8928 28.5262 28.0347 28.5969 28.1969C28.6774 28.3802 28.7049 28.5824 28.6762 28.7806C28.6476 28.9788 28.5641 29.165 28.435 29.3181C28.3377 29.4333 28.2171 29.5266 28.0812 29.5919C28.2273 29.663 28.3876 29.7 28.5501 29.7002C28.7126 29.7004 28.873 29.6637 29.0192 29.5929C29.1655 29.522 29.2937 29.4189 29.3943 29.2913C29.4949 29.1637 29.5653 29.015 29.6 28.8562C29.6478 28.635 29.6248 28.4044 29.5344 28.1969C29.4637 28.0347 29.3537 27.8928 29.2144 27.7837Z" fill="#FFC570"/>
<path d="M13 16.05L16.5146 16.813C16.6601 16.846 16.7865 16.9355 16.8661 17.0617C16.9456 17.1879 16.9718 17.3405 16.9388 17.486L15.4217 24.1789C15.3887 24.3243 15.2993 24.4508 15.1731 24.5303C15.0469 24.6099 14.8942 24.636 14.7487 24.603L13 24.3129" fill="#FA8232"/>
<path d="M16.5146 16.813L13 16.05V16.7711L15.5771 17.3306C15.7226 17.3636 15.849 17.453 15.9286 17.5792C16.0081 17.7054 16.0343 17.8581 16.0013 18.0035L14.5142 24.5641L14.7487 24.603C14.8942 24.636 15.0469 24.6098 15.1731 24.5303C15.2993 24.4507 15.3887 24.3243 15.4217 24.1788L16.9388 17.4859C16.9718 17.3404 16.9456 17.1878 16.8661 17.0616C16.7865 16.9354 16.6601 16.846 16.5146 16.813Z" fill="#FA8232"/>
<path d="M32.0426 32.5485C32.0426 32.6728 32.092 32.792 32.1799 32.8799C32.2678 32.9679 32.387 33.0172 32.5114 33.0172H33.8901C33.8048 33.1788 33.6771 33.314 33.5207 33.4084C33.3643 33.5028 33.1851 33.5528 33.0024 33.553H32.5113C32.4195 33.553 32.3297 33.58 32.2531 33.6305C32.1765 33.6811 32.1164 33.753 32.0804 33.8374C32.0443 33.9218 32.0337 34.0149 32.0501 34.1053C32.0665 34.1956 32.109 34.2791 32.1724 34.3455L34.1366 36.4021C34.1791 36.4466 34.23 36.4823 34.2863 36.5071C34.3426 36.532 34.4033 36.5455 34.4648 36.5469C34.5264 36.5483 34.5876 36.5376 34.645 36.5154C34.7024 36.4931 34.7548 36.4598 34.7994 36.4173C34.8439 36.3748 34.8796 36.3239 34.9044 36.2676C34.9293 36.2113 34.9428 36.1506 34.9442 36.0891C34.9457 36.0275 34.9349 35.9663 34.9127 35.9089C34.8905 35.8515 34.8571 35.7991 34.8146 35.7545L33.536 34.4159C33.8639 34.3214 34.1612 34.1425 34.3982 33.897C34.6352 33.6516 34.8037 33.3482 34.8867 33.0172H35.2123C35.3366 33.0172 35.4558 32.9679 35.5437 32.8799C35.6317 32.792 35.681 32.6728 35.681 32.5485C35.681 32.4242 35.6317 32.3049 35.5437 32.217C35.4558 32.1291 35.3366 32.0797 35.2123 32.0797H34.8869C34.8399 31.891 34.7647 31.7104 34.6639 31.5441H35.2122C35.3366 31.5441 35.4558 31.4947 35.5437 31.4068C35.6316 31.3189 35.681 31.1997 35.681 31.0754C35.681 30.951 35.6316 30.8318 35.5437 30.7439C35.4558 30.656 35.3366 30.6066 35.2122 30.6066H32.5114C32.387 30.6066 32.2678 30.656 32.1799 30.7439C32.092 30.8318 32.0426 30.951 32.0426 31.0754C32.0426 31.1997 32.092 31.3189 32.1799 31.4068C32.2678 31.4947 32.387 31.5441 32.5114 31.5441H33.0024C33.1851 31.5443 33.3643 31.5942 33.5207 31.6886C33.6771 31.783 33.8048 31.9182 33.8901 32.0797H32.5114C32.387 32.0797 32.2678 32.1291 32.1799 32.217C32.092 32.3049 32.0426 32.4242 32.0426 32.5485ZM42.6562 26.735H30.851L30.4845 23.1214C30.4241 22.5423 30.2525 21.9802 29.9792 21.466L29.7751 21.0819L29.7675 21.0669L29.7645 21.061L28.0504 17.6709C27.9138 17.4006 27.7077 17.1716 27.4533 17.0074C27.1988 16.8433 26.9053 16.7498 26.6027 16.7367C26.5854 16.736 26.568 16.7362 26.5507 16.7373L25.8177 16.787C23.6215 16.9361 21.4253 17.0849 19.2292 17.2335L18.2524 17.3C18.0911 17.295 17.93 17.2873 17.7689 17.2771C17.6544 17.2699 17.5375 17.2609 17.4147 17.2502C17.392 17.0376 17.3036 16.8375 17.1619 16.6774C17.0202 16.5174 16.8322 16.4055 16.624 16.3572L13.5825 15.5953C13.4624 15.5664 13.3357 15.5861 13.23 15.6501C13.1243 15.7141 13.0481 15.8173 13.0181 15.9371C12.9881 16.057 13.0066 16.1839 13.0697 16.2902C13.1327 16.3965 13.2352 16.4736 13.3548 16.5047L16.4005 17.2677L16.4109 17.2702C16.4351 17.2758 16.4561 17.2907 16.4694 17.3117C16.4826 17.3327 16.487 17.3581 16.4815 17.3824L14.9645 24.0752C14.9618 24.0872 14.9567 24.0985 14.9496 24.1086C14.9425 24.1186 14.9335 24.1271 14.9231 24.1337C14.9127 24.1403 14.9011 24.1447 14.889 24.1468C14.8768 24.1489 14.8644 24.1485 14.8524 24.1458L13.5724 23.8557C13.4512 23.8282 13.324 23.85 13.2188 23.9163C13.1136 23.9826 13.0391 24.0879 13.0116 24.2092C12.9841 24.3304 13.0059 24.4576 13.0722 24.5628C13.1385 24.668 13.2439 24.7425 13.3651 24.77L14.6452 25.0601C14.7206 25.0773 14.7977 25.086 14.8751 25.086C15.1086 25.0854 15.3351 25.0055 15.5174 24.8596C15.6997 24.7136 15.8271 24.5102 15.8789 24.2824L15.8864 24.2492L16.7875 24.872C17.0124 25.0274 17.2579 25.1508 17.5169 25.2386L18.7725 25.6667C18.5913 25.7898 18.4459 25.9588 18.351 26.1563C18.2562 26.3539 18.2154 26.573 18.2327 26.7914C18.2333 26.8037 18.2344 26.8161 18.2359 26.8287C18.265 27.1373 18.4081 27.4239 18.6373 27.6326C18.8665 27.8412 19.1654 27.9567 19.4753 27.9567C19.4899 27.9567 19.5047 27.9564 19.5193 27.9559C19.793 27.9464 20.0667 27.9368 20.3405 27.9272C20.2287 28.1602 20.1882 28.4212 20.2241 28.6772C20.2601 28.9332 20.3709 29.1728 20.5426 29.366C20.7144 29.5593 20.9394 29.6974 21.1895 29.7631C21.4395 29.8288 21.7034 29.8192 21.9479 29.7354L22.7237 29.47V38.075C22.7244 38.6964 22.9716 39.2921 23.411 39.7315C23.8504 40.1709 24.4461 40.418 25.0675 40.4187H42.6562C43.2776 40.418 43.8733 40.1709 44.3127 39.7315C44.7521 39.2921 44.9992 38.6964 44.9999 38.075V29.0787C44.9992 28.4573 44.7521 27.8616 44.3127 27.4222C43.8733 26.9828 43.2776 26.7357 42.6562 26.735ZM19.4867 27.019C19.4078 27.0215 19.3309 26.9937 19.2718 26.9413C19.2127 26.8889 19.1759 26.8159 19.1689 26.7372C19.1686 26.7336 19.1682 26.73 19.1678 26.7264C19.1678 26.7254 19.1677 26.7242 19.1675 26.7231C19.161 26.6502 19.1807 26.5774 19.2231 26.5177C19.2654 26.458 19.3277 26.4154 19.3986 26.3975C19.484 26.3759 19.64 26.3267 19.8867 26.2481C19.9879 26.2158 20.1041 26.1788 20.1936 26.1512L21.8061 26.7009L21.4457 26.9505C20.7925 26.9737 20.1395 26.9965 19.4867 27.019ZM22.8096 28.4499L21.6434 28.8487C21.5941 28.8655 21.5419 28.8718 21.4901 28.8673C21.4382 28.8628 21.3879 28.8475 21.3423 28.8225C21.2967 28.7975 21.2568 28.7632 21.2251 28.7219C21.1935 28.6806 21.1708 28.6331 21.1585 28.5826C21.1407 28.5074 21.1464 28.4285 21.1747 28.3566C21.203 28.2847 21.2526 28.2232 21.3169 28.1804L21.8083 27.8399C21.8574 27.8171 21.9023 27.7861 21.9408 27.748L22.8203 27.1387L23.3774 27.456C23.1086 27.735 22.9135 28.0766 22.8096 28.4499ZM22.8424 26.0726C22.8167 26.058 22.7898 26.0459 22.7618 26.0364L20.3659 25.2195L20.3591 25.2172L17.8182 24.3509C17.6414 24.291 17.4738 24.2068 17.3202 24.1006L16.2339 23.35C16.1942 23.3226 16.1505 23.3014 16.1044 23.2874L17.2628 18.1767C17.2722 18.1781 17.2813 18.1798 17.2908 18.1806C17.609 18.2092 17.928 18.2283 18.2474 18.2379C18.2616 18.2384 18.2764 18.2381 18.2909 18.2372L19.2928 18.1689C21.4891 18.0204 23.6853 17.8716 25.8812 17.7224L26.585 17.6746C26.717 17.6842 26.8443 17.7279 26.9544 17.8012C27.0645 17.8746 27.1538 17.9753 27.2135 18.0934L28.9276 21.4834L28.9426 21.5129L28.9472 21.5219L29.1512 21.9056C29.3678 22.3132 29.5039 22.7587 29.552 23.2178L29.9087 26.735H28.761L28.4445 24.1658C28.4361 24.0981 28.4131 24.033 28.377 23.9751C28.3409 23.9172 28.2926 23.8678 28.2354 23.8305L27.6848 23.4712C27.6817 23.4692 27.679 23.4668 27.6759 23.4648L26.2339 22.5247C26.0753 22.4214 25.8973 22.3518 25.7108 22.3201C25.5242 22.2885 25.3332 22.2955 25.1495 22.3407C24.9658 22.3859 24.7933 22.4683 24.6428 22.5829C24.4922 22.6975 24.3668 22.8418 24.2743 23.0068C24.1948 23.1481 24.1411 23.3025 24.1157 23.4626C24.1116 23.4862 24.1084 23.5105 24.1061 23.5342C24.1007 23.583 24.098 23.6321 24.098 23.6812C24.0971 23.8904 24.1441 24.0971 24.2355 24.2853C24.3268 24.4735 24.46 24.6383 24.6249 24.767L28.1789 27.5652L28.1802 27.5662L28.9242 28.152C29.0031 28.2133 29.0652 28.2934 29.105 28.385C29.1555 28.5017 29.1685 28.6312 29.142 28.7556C29.1318 28.802 29.1162 28.847 29.0955 28.8897C29.0945 28.892 29.0933 28.8941 29.0924 28.8964C29.0422 28.9973 28.9649 29.0822 28.869 29.1414C28.7731 29.2006 28.6625 29.2317 28.5499 29.2312C28.445 29.2315 28.342 29.2042 28.2511 29.152L22.8424 26.0726ZM29.7317 29.6192C29.7513 29.5957 29.7702 29.5718 29.7882 29.5475H40.8728C40.9565 29.8631 41.1222 30.151 41.3531 30.3818C41.5839 30.6127 41.8718 30.7784 42.1874 30.862V36.2915C41.8718 36.3752 41.5839 36.5409 41.353 36.7718C41.1221 37.0027 40.9565 37.2906 40.8728 37.6062H26.8508C26.7671 37.2906 26.6014 37.0027 26.3705 36.7719C26.1397 36.541 25.8518 36.3753 25.5362 36.2916V30.862C25.8518 30.7784 26.1397 30.6127 26.3705 30.3818C26.6014 30.1509 26.7671 29.863 26.8508 29.5474H27.051L27.7874 29.9667C28.101 30.1451 28.4672 30.2081 28.8224 30.1446C29.1776 30.0811 29.4993 29.8952 29.7317 29.6192ZM27.728 26.017L25.2037 24.0295C25.1509 23.9881 25.1083 23.9353 25.0792 23.8749C25.05 23.8145 25.0351 23.7483 25.0355 23.6812C25.0355 23.6658 25.0364 23.6504 25.0381 23.6351C25.0386 23.6312 25.0389 23.628 25.0392 23.624L25.0412 23.612C25.0492 23.5604 25.0664 23.5107 25.092 23.4652C25.1218 23.4121 25.1621 23.3657 25.2105 23.3289C25.2589 23.292 25.3143 23.2655 25.3734 23.251C25.4324 23.2364 25.4938 23.2342 25.5538 23.2443C25.6138 23.2545 25.671 23.2769 25.722 23.31L26.1226 23.5713L26.1244 23.5725L27.5407 24.4966L27.728 26.017ZM44.0624 38.075C44.062 38.4478 43.9137 38.8053 43.6501 39.0689C43.3864 39.3325 43.029 39.4808 42.6562 39.4812H25.0674C24.6946 39.4808 24.3372 39.3325 24.0735 39.0689C23.8099 38.8053 23.6616 38.4478 23.6612 38.075V29.0787C23.6615 28.8579 23.7138 28.6402 23.8137 28.4433C23.9136 28.2464 24.0584 28.0757 24.2364 27.945L25.9932 28.9452C25.9803 28.9885 25.9737 29.0335 25.9737 29.0787C25.9734 29.3189 25.8778 29.5493 25.7079 29.7192C25.538 29.8891 25.3077 29.9846 25.0674 29.9849C24.9431 29.9849 24.8239 30.0343 24.736 30.1222C24.6481 30.2101 24.5987 30.3294 24.5987 30.4537V36.6999C24.5987 36.8242 24.6481 36.9435 24.736 37.0314C24.8239 37.1193 24.9431 37.1687 25.0674 37.1687C25.3077 37.169 25.538 37.2645 25.7079 37.4344C25.8778 37.6043 25.9734 37.8347 25.9737 38.0749C25.9737 38.1992 26.0231 38.3185 26.111 38.4064C26.1989 38.4943 26.3181 38.5437 26.4424 38.5437H41.2812C41.4055 38.5437 41.5247 38.4943 41.6126 38.4064C41.7005 38.3185 41.7499 38.1992 41.7499 38.0749C41.7502 37.8347 41.8458 37.6043 42.0157 37.4344C42.1856 37.2645 42.4159 37.169 42.6562 37.1687C42.7805 37.1687 42.8997 37.1193 42.9876 37.0314C43.0755 36.9435 43.1249 36.8242 43.1249 36.6999V30.4537C43.1249 30.3294 43.0755 30.2101 42.9876 30.1222C42.8997 30.0343 42.7805 29.9849 42.6562 29.9849C42.4159 29.9846 42.1856 29.8891 42.0157 29.7192C41.8458 29.5493 41.7502 29.3189 41.7499 29.0787C41.7499 28.9544 41.7005 28.8351 41.6126 28.7472C41.5247 28.6593 41.4055 28.6099 41.2812 28.6099H30.0919C30.0898 28.4035 30.0464 28.1995 29.9642 28.0101C29.9115 27.8892 29.8432 27.7757 29.7612 27.6724H42.6562C43.029 27.6729 43.3864 27.8211 43.6501 28.0848C43.9137 28.3484 44.062 28.7058 44.0624 29.0787V38.075Z" fill="#272A33"/>
</svg>
