<svg width="57" height="56" viewBox="0 0 57 56" fill="none" xmlns="http://www.w3.org/2000/svg">
<circle cx="28.5" cy="28" r="28" fill="#EFD33D" fill-opacity="0.1"/>
<path d="M27 33H15C14.8674 33 14.7402 33.0527 14.6464 33.1464C14.5527 33.2402 14.5 33.3674 14.5 33.5V42.5C14.5 42.6326 14.5527 42.7598 14.6464 42.8536C14.7402 42.9473 14.8674 43 15 43H27C27.1326 43 27.2598 42.9473 27.3536 42.8536C27.4473 42.7598 27.5 42.6326 27.5 42.5V33.5C27.5 33.3674 27.4473 33.2402 27.3536 33.1464C27.2598 33.0527 27.1326 33 27 33ZM23 30H35C35.1326 30 35.2598 29.9473 35.3536 29.8536C35.4473 29.7598 35.5 29.6326 35.5 29.5V20.5C35.5 20.3674 35.4473 20.2402 35.3536 20.1464C35.2598 20.0527 35.1326 20 35 20H23C22.8674 20 22.7402 20.0527 22.6464 20.1464C22.5527 20.2402 22.5 20.3674 22.5 20.5V29.5C22.5 29.6326 22.5527 29.7598 22.6464 29.8536C22.7402 29.9473 22.8674 30 23 30ZM43 33H31C30.8674 33 30.7402 33.0527 30.6464 33.1464C30.5527 33.2402 30.5 33.3674 30.5 33.5V42.5C30.5 42.6326 30.5527 42.7598 30.6464 42.8536C30.7402 42.9473 30.8674 43 31 43H43C43.1326 43 43.2598 42.9473 43.3536 42.8536C43.4473 42.7598 43.5 42.6326 43.5 42.5V33.5C43.5 33.3674 43.4473 33.2402 43.3536 33.1464C43.2598 33.0527 43.1326 33 43 33Z" fill="#FA8232"/>
<path d="M27.5 30H14.5C14.3674 30 14.2402 30.0527 14.1464 30.1465C14.0527 30.2402 14 30.3674 14 30.5V33.5C14 33.6326 14.0527 33.7598 14.1464 33.8536C14.2402 33.9473 14.3674 34 14.5 34H27.5C27.6326 34 27.7598 33.9473 27.8536 33.8536C27.9473 33.7598 28 33.6326 28 33.5V30.5C28 30.3674 27.9473 30.2402 27.8536 30.1465C27.7598 30.0527 27.6326 30 27.5 30ZM22.0575 20.834C22.102 20.9589 22.1941 21.0611 22.3138 21.1182C22.4335 21.1753 22.5709 21.1826 22.696 21.1385L34.95 16.7995C35.0119 16.7776 35.0689 16.7437 35.1178 16.6998C35.1666 16.6558 35.2063 16.6027 35.2346 16.5434C35.2628 16.4841 35.2792 16.4198 35.2826 16.3542C35.286 16.2886 35.2765 16.2229 35.2545 16.161L34.2535 13.333C34.2316 13.2712 34.1977 13.2143 34.1538 13.1655C34.1099 13.1168 34.0567 13.0772 33.9975 13.049C33.8776 12.9922 33.7402 12.9849 33.615 13.0285L21.3605 17.3675C21.2358 17.4123 21.1339 17.5045 21.0769 17.6241C21.0198 17.7437 21.0123 17.8809 21.056 18.006L22.0575 20.834ZM43.5 30H30.5C30.3674 30 30.2402 30.0527 30.1464 30.1465C30.0527 30.2402 30 30.3674 30 30.5V33.5C30 33.6326 30.0527 33.7598 30.1464 33.8536C30.2402 33.9473 30.3674 34 30.5 34H43.5C43.6326 34 43.7598 33.9473 43.8536 33.8536C43.9473 33.7598 44 33.6326 44 33.5V30.5C44 30.3674 43.9473 30.2402 43.8536 30.1465C43.7598 30.0527 43.6326 30 43.5 30Z" fill="#4D4D4D"/>
<path d="M37.52 17.5455H39.52V18.5455H37.52V17.5455ZM40.52 17.5455H41.52V18.5455H40.52V17.5455ZM38.5175 14.61L38.9965 15.4875L37.2415 16.4455L36.762 15.5675L38.5175 14.61ZM40.273 13.6505L40.752 14.5285L39.874 15.0075L39.395 14.1295L40.273 13.6505ZM37.24 19.6435L38.996 20.602L38.517 21.48L36.761 20.521L37.24 19.6435ZM39.872 21.08L40.75 21.56L40.2705 22.437L39.393 21.958L39.872 21.08Z" fill="#CCCCCC"/>
<path d="M22.51 38H19.49C19.095 37.9995 18.7163 37.8423 18.437 37.563C18.1577 37.2837 18.0005 36.905 18 36.51C18 35.6685 18.6685 35 19.49 35H22.51C22.905 35.0005 23.2837 35.1577 23.563 35.437C23.8423 35.7163 23.9995 36.095 24 36.49C24 37.3315 23.3315 38 22.51 38ZM19.49 36C19.36 36 19.2354 36.0516 19.1435 36.1435C19.0516 36.2354 19 36.36 19 36.49C19 36.7805 19.2195 37 19.49 37H22.51C22.64 37 22.7646 36.9484 22.8565 36.8565C22.9484 36.7646 23 36.64 23 36.51C23 36.2195 22.7805 36 22.51 36H19.49ZM38.51 38H35.49C35.095 37.9995 34.7163 37.8423 34.437 37.563C34.1577 37.2837 34.0005 36.905 34 36.51C34 35.6685 34.6685 35 35.49 35H38.51C38.905 35.0005 39.2837 35.1577 39.563 35.437C39.8423 35.7163 39.9995 36.095 40 36.49C40 37.3315 39.3315 38 38.51 38ZM35.49 36C35.36 36 35.2354 36.0516 35.1435 36.1435C35.0516 36.2354 35 36.36 35 36.49C35 36.7805 35.2195 37 35.49 37H38.51C38.64 37 38.7646 36.9484 38.8565 36.8565C38.9484 36.7646 39 36.64 39 36.51C39 36.2195 38.7805 36 38.51 36H35.49ZM30.51 25H27.49C27.095 24.9995 26.7163 24.8423 26.437 24.563C26.1577 24.2837 26.0005 23.905 26 23.51C26 22.6685 26.6685 22 27.49 22H30.51C30.905 22.0005 31.2837 22.1577 31.563 22.437C31.8423 22.7163 31.9995 23.095 32 23.49C32 24.3315 31.3315 25 30.51 25ZM27.49 23C27.36 23 27.2354 23.0516 27.1435 23.1435C27.0516 23.2354 27 23.36 27 23.49C27 23.7805 27.2195 24 27.49 24H30.51C30.5743 24 30.6381 23.9873 30.6975 23.9627C30.757 23.9381 30.811 23.902 30.8565 23.8565C30.902 23.811 30.9381 23.757 30.9627 23.6975C30.9873 23.6381 31 23.5743 31 23.51C31 23.2195 30.7805 23 30.51 23H27.49Z" fill="white"/>
<path d="M27 28.5C25.4573 28.5018 23.9289 28.2036 22.5 27.622V29.5C22.5 29.6327 22.5527 29.7598 22.6464 29.8536C22.7402 29.9474 22.8674 30 23 30H35C35.1326 30 35.2598 29.9474 35.3536 29.8536C35.4473 29.7598 35.5 29.6327 35.5 29.5V24.769C33.592 27.026 30.5005 28.5 27 28.5ZM19 41.5C17.4573 41.5018 15.9289 41.2036 14.5 40.622V42.5C14.5 42.6327 14.5527 42.7598 14.6464 42.8536C14.7402 42.9474 14.8674 43 15 43H27C27.1326 43 27.2598 42.9474 27.3536 42.8536C27.4473 42.7598 27.5 42.6327 27.5 42.5V37.769C25.592 40.026 22.5005 41.5 19 41.5ZM35 41.5C33.4573 41.5018 31.9289 41.2036 30.5 40.622V42.5C30.5 42.6327 30.5527 42.7598 30.6464 42.8536C30.7402 42.9474 30.8674 43 31 43H43C43.1326 43 43.2598 42.9474 43.3536 42.8536C43.4473 42.7598 43.5 42.6327 43.5 42.5V37.769C41.592 40.026 38.5005 41.5 35 41.5Z" fill="#FFE177"/>
<path d="M31.5 27H33.5V28H31.5V27ZM23.5 40H25.5V41H23.5V40ZM39.5 40H41.5V41H39.5V40Z" fill="white"/>
</svg>
