<svg width="57" height="56" viewBox="0 0 57 56" fill="none" xmlns="http://www.w3.org/2000/svg">
<circle cx="28.5" cy="28" r="28" fill="#EFD33D" fill-opacity="0.1"/>
<path d="M35.9884 19.344V25.747C35.9884 26.4659 35.9252 27.1802 35.794 27.881C35.2807 30.5955 33.4242 34.7655 28.0511 36.7575C27.6291 36.9137 27.1652 36.9137 26.7432 36.7575C21.3698 34.7655 19.5132 30.5955 18.9999 27.881C18.8691 27.1802 18.8059 26.4659 18.8059 25.747V19.344C23.7796 21.605 27.3972 17.083 27.3972 17.083C27.3972 17.083 31.0143 21.605 35.9884 19.344Z" fill="#FA8232"/>
<path d="M25.0429 35.9987C23.1359 34.9873 21.7904 33.6727 20.8521 32.314C20.8951 26.2826 24.7587 21.153 30.1409 19.2268C31.6411 19.9771 33.6669 20.3992 35.9883 19.344V20.0021C29.874 22.8879 25.5291 28.9167 25.0429 35.9987Z" fill="#FA8232"/>
<path d="M34.4724 38.9663C32.5418 38.9663 30.9768 37.4013 30.9768 35.4707V32.9738H37.9681V35.4707C37.9681 37.4013 36.4031 38.9663 34.4724 38.9663Z" fill="#E7F2F7"/>
<path d="M36.9693 32.9738V34.7957C36.9693 36.7263 35.4043 38.2913 33.4737 38.2913C32.982 38.292 32.4957 38.1886 32.0468 37.9878C31.3872 37.3521 30.9768 36.4593 30.9768 35.4707V32.9738H36.9693Z" fill="#E7F2F7"/>
<path d="M35.9884 24.1626V25.747C35.9884 25.8202 35.9877 25.8934 35.9864 25.9666C32.7905 28.2037 30.5699 31.7417 30.0957 35.8092C29.6361 36.0705 29.1617 36.3045 28.6747 36.5102C28.6497 36.4748 28.6249 36.4395 28.6006 36.4042C28.6384 31.1098 31.6201 26.5104 35.9884 24.1626Z" fill="#FA8232"/>
<path fillRule="evenodd" clipRule="evenodd" d="M35.0968 34.7216C35.0968 34.556 35.031 34.3973 34.9139 34.2802C34.7969 34.1632 34.6381 34.0974 34.4726 34.0973C34.307 34.0974 34.1483 34.1632 34.0313 34.2802C33.9142 34.3973 33.8485 34.556 33.8484 34.7216C33.8485 34.8871 33.9142 35.0458 34.0313 35.1628C34.1483 35.2799 34.307 35.3457 34.4726 35.3457C34.6381 35.3457 34.7968 35.2799 34.9139 35.1629C35.0309 35.0458 35.0967 34.8871 35.0968 34.7216ZM34.3477 34.7216C34.3477 34.6884 34.3609 34.6567 34.3844 34.6332C34.4078 34.6098 34.4396 34.5967 34.4727 34.5967C34.5059 34.5967 34.5377 34.6099 34.5611 34.6334C34.5845 34.6568 34.5976 34.6886 34.5976 34.7217C34.5976 34.7549 34.5844 34.7866 34.5609 34.8101C34.5375 34.8335 34.5057 34.8466 34.4726 34.8466C34.4394 34.8466 34.4077 34.8334 34.3842 34.8099C34.3608 34.7865 34.3477 34.7547 34.3477 34.7216Z" fill="#1C3D57"/>
<path fillRule="evenodd" clipRule="evenodd" d="M34.0979 34.4719V36.4693C34.098 36.5687 34.1375 36.6639 34.2077 36.7341C34.2779 36.8043 34.3731 36.8438 34.4725 36.8439C34.6792 36.8439 34.847 36.6761 34.847 36.4693V34.4719C34.847 34.2651 34.6792 34.0973 34.4725 34.0973C34.3731 34.0974 34.2779 34.1368 34.2077 34.2071C34.1375 34.2773 34.098 34.3725 34.0979 34.4719Z" fill="#1C3D57"/>
<path fillRule="evenodd" clipRule="evenodd" d="M34.4724 39.3408C36.6098 39.3408 38.3426 37.6081 38.3426 35.4706V32.9737C38.3426 32.8744 38.3031 32.7791 38.2329 32.7089C38.1626 32.6387 38.0674 32.5992 37.968 32.5992H30.9768C30.8774 32.5992 30.7822 32.6387 30.712 32.7089C30.6417 32.7791 30.6023 32.8744 30.6023 32.9737V35.4706C30.6023 37.6081 32.335 39.3408 34.4724 39.3408ZM34.4724 38.5917C32.7487 38.5917 31.3513 37.1944 31.3513 35.4706V33.3483H37.5935V35.4706C37.5935 37.1944 36.1962 38.5917 34.4724 38.5917Z" fill="#1C3D57"/>
<path fillRule="evenodd" clipRule="evenodd" d="M32.3501 32.9738V31.4757C32.3501 30.3038 33.3005 29.3534 34.4724 29.3534C35.6444 29.3534 36.5948 30.3038 36.5948 31.4757V32.9738C36.5948 33.1805 36.7626 33.3483 36.9693 33.3483C37.1761 33.3483 37.3439 33.1805 37.3439 32.9738V31.4757C37.3439 29.8901 36.0581 28.6042 34.4724 28.6042C32.8868 28.6042 31.6011 29.8901 31.6011 31.4757V32.9738C31.6011 33.1805 31.7689 33.3483 31.9755 33.3483C32.1823 33.3483 32.3501 33.1805 32.3501 32.9738Z" fill="#1C3D57"/>
<path fillRule="evenodd" clipRule="evenodd" d="M30.7634 35.0581C29.9707 35.6083 29.054 36.099 27.995 36.5002C27.6641 36.6256 27.2987 36.6256 26.9678 36.5002V36.5002C21.8243 34.5525 20.0437 30.4779 19.5525 27.8237C19.4268 27.139 19.3665 26.4406 19.3665 25.7378V19.8393C23.4315 21.3765 26.5404 18.5627 27.4813 17.56C28.4222 18.5627 31.5312 21.3765 35.596 19.8394C35.5962 19.8393 35.5962 25.7378 35.5962 25.7378C35.5962 26.4406 35.5358 27.1391 35.4101 27.824C35.3381 28.2135 35.1917 29.9986 33.2761 32.5898C33.2171 32.6696 33.1922 32.7697 33.2069 32.8679C33.2217 32.9661 33.2748 33.0545 33.3546 33.1135C33.4345 33.1726 33.5346 33.1974 33.6328 33.1827C33.731 33.168 33.8194 33.1148 33.8785 33.035C35.9177 30.2767 36.07 28.3748 36.1468 27.9597L36.1469 27.9593C36.2807 27.2299 36.3453 26.4862 36.3453 25.7378V19.2754C36.3453 19.2125 36.3294 19.1506 36.2992 19.0954C36.2689 19.0402 36.2253 18.9936 36.1722 18.9597C36.1192 18.9259 36.0585 18.9059 35.9957 18.9017C35.9329 18.8975 35.8701 18.9092 35.813 18.9357C31.1583 21.0971 27.7762 16.7628 27.7762 16.7628C27.7411 16.7181 27.6964 16.6819 27.6453 16.6571C27.5942 16.6322 27.5382 16.6193 27.4813 16.6193C27.4245 16.6193 27.3685 16.6322 27.3174 16.6571C27.2663 16.6819 27.2215 16.7181 27.1865 16.7628C27.1865 16.7628 23.8044 21.0971 19.1497 18.9357C19.0926 18.9092 19.0298 18.8975 18.967 18.9017C18.9042 18.9058 18.8434 18.9258 18.7904 18.9596C18.7373 18.9935 18.6937 19.0402 18.6635 19.0954C18.6332 19.1506 18.6174 19.2125 18.6174 19.2754V25.7378C18.6174 26.4862 18.6819 27.2299 18.8158 27.9593C18.8159 27.9594 18.8159 27.9596 18.8159 27.9597C19.3386 30.7848 21.2275 35.1275 26.7025 37.2007C27.2043 37.3909 27.7583 37.3909 28.2601 37.2007H28.2602C29.3814 36.7759 30.3514 36.2559 31.1905 35.6735C31.272 35.6169 31.3278 35.5302 31.3454 35.4324C31.3631 35.3347 31.3413 35.2339 31.2847 35.1523C31.228 35.0707 31.1413 35.015 31.0435 34.9973C30.9458 34.9797 30.845 35.0015 30.7634 35.0581Z" fill="#1C3D57"/>
<path fillRule="evenodd" clipRule="evenodd" d="M28.9794 24.4844C28.9794 23.6575 28.3081 22.9862 27.4812 22.9862C26.6544 22.9862 25.9832 23.6575 25.9832 24.4844C25.9832 25.3112 26.6544 25.9825 27.4812 25.9825C28.3081 25.9825 28.9794 25.3112 28.9794 24.4844Z" fill="#FFE177"/>
<path fillRule="evenodd" clipRule="evenodd" d="M29.354 24.4844C29.354 23.4509 28.5149 22.6118 27.4813 22.6118C26.4477 22.6118 25.6086 23.4509 25.6086 24.4844C25.6086 25.518 26.4477 26.3571 27.4813 26.3571C28.5149 26.3571 29.354 25.518 29.354 24.4844ZM28.6049 24.4844C28.6049 25.1046 28.1014 25.608 27.4813 25.608C26.8611 25.608 26.3577 25.1046 26.3577 24.4844C26.3577 23.8643 26.8611 23.3609 27.4813 23.3609C28.1014 23.3609 28.6049 23.8643 28.6049 24.4844Z" fill="#1C3D57"/>
<path d="M30.4776 29.2285H24.4851C24.4851 27.5736 25.8264 26.2322 27.4813 26.2322C29.1363 26.2322 30.4776 27.5736 30.4776 29.2285Z" fill="#FFE177"/>
<path fillRule="evenodd" clipRule="evenodd" d="M30.4775 29.6029C30.5768 29.6029 30.672 29.5635 30.7422 29.4932C30.8125 29.423 30.8519 29.3278 30.8519 29.2285C30.8519 27.3666 29.343 25.8577 27.4811 25.8577C25.6194 25.8577 24.1104 27.3666 24.1104 29.2285C24.1104 29.3278 24.1498 29.423 24.2201 29.4932C24.2903 29.5635 24.3856 29.6029 24.4849 29.6029H30.4775ZM30.0764 28.8539H24.886C25.0677 27.5833 26.1602 26.6067 27.4811 26.6067C28.8021 26.6067 29.8947 27.5833 30.0764 28.854V28.8539Z" fill="#1C3D57"/>
</svg>
